HIERARCHY
ROOT hip
{
	OFFSET 0.000000 0.000000 0.000000 
	CHANNELS 6 Xposition Yposition Zposition Xrotation Zrotation Yrotation
	JOINT abdomen
	{
		OFFSET 0.000000 3.402643 0.000000 
		CHANNELS 3 Xrotation Zrotation Yrotation
		JOINT chest
		{
			OFFSET 0.000000 8.438565 -0.680529 
			CHANNELS 3 Xrotation Zrotation Yrotation
			JOINT neck
			{
				OFFSET 0.000000 10.207942 -0.272212 
				CHANNELS 3 Xrotation Zrotation Yrotation
				JOINT head
				{
					OFFSET 0.000000 3.130431 0.000000 
					CHANNELS 3 Xrotation Zrotation Yrotation
					End Site
					{
						OFFSET 0.000000 3.130435 0.000000 
					}
				}
			}
			JOINT lCollar
			{
				OFFSET 3.470700 6.669187 -0.816635 
				CHANNELS 3 Yrotation Zrotation Xrotation
				JOINT lShldr
				{
					OFFSET 3.198488 0.000000 0.000000 
					CHANNELS 3 Zrotation Yrotation Xrotation
					JOINT lForeArm
					{
						OFFSET 10.139888 0.000000 0.000000 
						CHANNELS 3 Yrotation Zrotation Xrotation
						JOINT lHand
						{
							OFFSET 8.370511 0.000000 0.000000 
							CHANNELS 3 Zrotation Yrotation Xrotation
							End Site
							{
								OFFSET 4.083176 0.000000 0.000000 
							}
						}
					}
				}
			}
			JOINT rCollar
			{
				OFFSET -3.470700 6.669187 -0.816635 
				CHANNELS 3 Yrotation Zrotation Xrotation
				JOINT rShldr
				{
					OFFSET -3.198488 0.000000 0.000000 
					CHANNELS 3 Zrotation Yrotation Xrotation
					JOINT rForeArm
					{
						OFFSET -10.139888 0.000000 0.000000 
						CHANNELS 3 Yrotation Zrotation Xrotation
						JOINT rHand
						{
							OFFSET -8.370511 0.000000 0.000000 
							CHANNELS 3 Zrotation Yrotation Xrotation
							End Site
							{
								OFFSET -4.083176 0.000000 0.000000 
							}
						}
					}
				}
			}
		}
	}
	JOINT lThigh
	{
		OFFSET 5.308129 -1.633274 1.361059 
		CHANNELS 3 Xrotation Zrotation Yrotation
		JOINT lShin
		{
			OFFSET -2.041588 -20.007561 0.000000 
			CHANNELS 3 Xrotation Zrotation Yrotation
			JOINT lFoot
			{
				OFFSET 0.000000 -19.190928 -1.224953 
				CHANNELS 3 Xrotation Yrotation Zrotation
				End Site
				{
					OFFSET 0.000000 -2.449906 4.627600 
				}
			}
		}
	}
	JOINT rThigh
	{
		OFFSET -5.308129 -1.633274 1.361059 
		CHANNELS 3 Xrotation Zrotation Yrotation
		JOINT rShin
		{
			OFFSET 2.041588 -20.007561 0.000000 
			CHANNELS 3 Xrotation Zrotation Yrotation
			JOINT rFoot
			{
				OFFSET 0.000000 -19.190928 -1.224953 
				CHANNELS 3 Xrotation Yrotation Zrotation
				End Site
				{
					OFFSET 0.000000 -2.449906 4.627600 
				}
			}
		}
	}
}
MOTION
Frames: 16
Frame Time: 0.033333
4.135901 44.806866 -16.309910 6.328125 -5.810547 44.627918 21.396484 3.300781 -0.458422 -15.908204 -1.093750 -0.781250 -11.074219 -1.855469 -22.002270 5.068359 7.529185 -22.684576 -1.416016 6.064453 0.145453 -85.429688 -32.138672 64.199219 -63.398438 -3.203125 -35.692814 13.564453 5.185547 1.006744 -3.515625 1.494141 -0.097656 65.986328 25.527342 -0.283203 72.050781 3.603516 -51.806637 -17.285156 2.646484 -0.947266 -16.337168 19.783216 17.438660 45.796940 -0.596153 -2.746552 -23.237894 15.170721 1.737246 -41.068588 -18.072742 -10.507766 45.799587 0.163138 2.563671 -6.295216 2.355139 5.437302 
4.153685 44.807457 -16.310505 6.494141 -5.810547 44.628910 21.220703 3.300781 -0.458984 -15.908204 -1.093750 -0.781250 -11.249999 -1.679688 -22.012005 5.244141 7.529296 -22.498718 -1.416016 6.064453 0.145453 -85.214844 -32.255859 64.443359 -63.398438 -3.203125 -35.692814 13.212891 5.371094 1.026307 -3.691406 1.503906 -0.273694 66.230469 25.556643 -0.185547 71.904297 3.554688 -52.920528 -17.812500 2.646484 -0.976112 -16.122898 19.511349 17.454075 45.796638 -0.589161 -2.753434 -23.263617 15.188944 1.504276 -41.020878 -18.200266 -10.445079 45.799240 0.156148 2.570551 -6.352273 2.246053 5.412529 
4.174790 44.804493 -16.302441 6.494141 -5.634766 44.453602 21.220703 3.134765 -0.517578 -15.908204 -1.269531 -0.781250 -11.249999 -1.679688 -22.012005 5.244141 7.353516 -22.498749 -1.591797 6.054688 0.166016 -85.234375 -32.080082 64.447937 -63.134766 -3.154297 -35.399853 12.666016 5.410156 0.888672 -3.867188 1.503906 -0.263672 66.601563 25.400391 -0.152059 71.396484 3.544922 -53.965443 -17.285156 2.646484 -0.947266 -16.122898 19.511351 17.454073 45.620625 -0.589152 -2.754329 -23.318645 15.508553 1.501820 -41.018196 -18.218115 -10.275092 45.799217 0.165986 2.574490 -6.316751 2.302867 5.425549 
4.188662 44.810184 -16.305643 6.494141 -5.634766 44.453602 21.220703 3.300781 -0.458984 -15.742189 -1.445313 -0.771484 -11.425781 -1.679688 -22.012005 5.244141 7.001954 -22.498808 -1.416016 6.240234 0.146484 -85.234375 -32.089840 64.623718 -62.792969 -3.125000 -35.321732 12.324220 5.761719 0.918951 -4.218750 1.318359 -0.097656 67.304688 25.468752 0.150685 70.166016 3.623047 -53.691406 -16.757811 3.007812 -0.917456 -15.992765 19.416111 17.131659 45.613869 -0.892036 -2.700072 -23.608610 15.607006 1.828707 -41.089947 -18.444788 -10.574126 45.613823 0.166008 2.566026 -6.040780 2.554363 5.142285 
4.184275 44.812084 -16.315128 6.679688 -5.634766 44.276859 21.220703 3.300781 -0.458984 -15.917970 -1.445313 -0.781250 -11.601563 -1.679687 -22.011719 5.253906 6.474609 -22.500002 -1.416016 6.064453 0.145453 -84.863281 -31.777342 64.804688 -62.412109 -3.076172 -34.638672 11.972657 5.771485 0.938484 -4.218750 0.966797 -0.117188 67.958992 24.746094 1.029479 70.000000 3.671875 -53.330078 -18.359375 3.759766 -1.337249 -16.317642 19.568357 17.446981 45.778511 -0.772094 -3.000087 -23.237360 15.607146 1.598566 -41.272259 -18.442652 -10.726700 45.623222 0.166025 2.576157 -5.919735 2.567884 5.505410 
4.154752 44.821213 -16.359711 6.855469 -5.634765 44.296875 21.220703 3.300781 -0.458984 -16.093750 -1.621094 -0.781526 -11.953125 -1.855469 -22.002270 5.429688 6.474609 -22.490234 -1.416016 6.240234 0.146484 -84.697266 -31.523438 64.721458 -62.275391 -3.105469 -33.192833 10.556642 6.347656 0.850691 -4.218750 0.791016 -0.136719 68.388672 24.082031 1.210938 69.824219 3.476563 -54.550781 -19.248045 3.916016 -1.386052 -16.366249 19.499483 17.573519 45.795105 -0.772002 -2.816834 -23.327305 15.425511 1.665543 -41.430027 -18.609673 -10.484738 45.447941 0.165864 2.558396 -5.547553 2.758443 5.604826 
4.110765 44.818485 -16.473768 7.197265 -5.634766 44.287586 21.582029 3.183594 -0.683594 -16.621094 -1.787109 -0.976563 -12.148438 -2.011719 -21.797216 5.605469 6.474609 -22.303587 -1.416016 6.240234 0.146484 -84.365234 -31.025391 64.555511 -62.128910 -3.085938 -32.197266 9.316406 6.748048 0.751953 -4.042969 0.615234 -0.146484 69.072266 22.685549 1.146346 69.755859 3.554688 -56.065060 -19.960938 4.199219 -1.591797 -16.823265 19.504930 18.262890 45.958977 -0.901689 -2.887152 -23.751755 14.630354 1.444915 -41.986076 -19.156227 -10.421717 45.447063 0.332028 2.633965 -5.030373 2.789574 5.574490 
4.030379 44.774616 -16.704851 7.558595 -5.634766 44.452164 21.757813 3.242188 -0.849609 -17.148436 -2.138672 -1.172239 -12.695312 -2.167969 -21.611696 5.957031 6.474609 -22.109375 -1.083984 6.230468 0.283203 -83.652344 -30.400387 64.570313 -62.353516 -2.958984 -31.357141 8.789062 6.923828 0.791016 -4.052734 0.439453 -0.156250 69.716797 20.859375 1.751526 69.931641 3.496094 -56.416611 -21.025391 4.345703 -1.639885 -17.577856 19.989473 20.440918 46.652020 -0.608998 -3.153347 -23.753462 12.582698 0.537523 -42.528828 -19.326075 -10.132672 45.097027 0.165916 2.532732 -4.185907 3.334041 5.206068 
3.924973 44.650482 -17.071690 8.251954 -5.800781 44.647449 22.109375 3.125000 -1.063920 -18.027342 -2.480469 -1.377375 -13.251953 -2.480469 -21.220703 6.308594 6.484375 -21.738279 -0.908203 6.406250 0.263667 -82.773438 -29.667969 64.155327 -62.783203 -2.978516 -30.595201 7.939453 7.812500 0.839844 -4.052734 0.273438 -0.166016 70.351563 19.130861 3.001249 70.205086 3.496094 -56.924427 -22.656250 5.166016 -2.215916 -19.160179 20.331961 21.606874 48.425140 -0.611876 -3.060447 -24.379744 9.805654 -0.412358 -43.749798 -20.205015 -9.873737 45.275604 0.042001 2.676115 -3.386561 3.960302 5.216125 
3.826684 44.394852 -17.589582 9.140625 -5.986328 44.452106 22.646484 3.183594 -1.240234 -18.554689 -2.656250 -1.572266 -14.169923 -3.496094 -20.771484 6.835937 6.660155 -21.367188 -0.371094 6.064453 0.205078 -81.884766 -29.130856 63.925781 -63.574219 -2.919922 -29.365236 6.865235 8.730469 0.733906 -4.404297 -0.097656 -0.019515 71.132813 17.500000 3.801764 70.927734 3.671875 -57.754528 -23.212889 5.605468 -2.411156 -21.396305 20.614723 21.812473 51.754402 -0.265541 -3.073143 -25.069632 7.217686 -1.836487 -45.963596 -21.228605 -8.842200 45.613823 0.166010 2.566027 -2.534697 4.696029 5.101184 
3.776531 43.968731 -18.210033 9.833984 -6.152344 43.769527 22.822264 3.183594 -1.240234 -18.906248 -2.656250 -1.582484 -15.458984 -4.316406 -20.156988 7.363280 6.835937 -20.810545 -0.019531 5.712891 0.166016 -80.595703 -28.759766 63.310547 -64.414063 -2.910156 -27.539063 6.132813 8.925781 0.576172 -4.931641 -0.449219 -0.048828 71.660149 16.279297 5.068359 72.089844 3.691406 -59.053364 -23.222656 5.957031 -2.412109 -23.874926 21.343885 20.165279 56.669209 -0.257215 -3.130073 -25.941004 6.365170 -2.132973 -48.490025 -21.959211 -8.228839 46.856293 -0.009644 2.725259 -1.876014 6.069137 5.232203 
3.819214 43.423092 -18.880873 10.195313 -6.337891 42.519527 22.812500 3.125000 -1.063921 -19.433594 -2.470703 -1.425792 -15.712892 -5.097656 -19.179689 7.363281 7.187500 -20.107424 0.156250 5.185544 0.155367 -79.248047 -27.597656 62.714844 -65.546875 -2.880859 -26.103024 6.142578 9.277344 0.577746 -4.755859 -0.791016 -0.077990 71.835938 14.208984 6.445313 72.626953 3.613281 -59.853516 -22.744141 6.553129 -2.714057 -25.418713 22.507721 18.705339 62.277687 0.424111 -3.560334 -26.638077 8.355441 -1.167802 -50.904228 -21.941114 -7.527921 48.241871 0.165846 2.861538 -1.057540 7.408541 5.132128 
3.991370 42.788887 -19.494328 9.492188 -6.162110 40.604420 22.812502 3.076172 -0.897914 -20.126953 -2.119140 -1.269531 -14.423828 -5.664063 -17.872057 7.539062 7.363280 -18.867189 0.156250 4.130859 0.156250 -77.480469 -25.820311 61.894531 -66.250000 -2.802734 -24.814453 5.449219 9.990233 0.646225 -4.228516 -0.966797 -0.087726 72.294922 11.943360 7.736397 71.826172 3.642578 -59.209606 -22.001951 6.123046 -2.518489 -24.975698 24.581667 16.343502 67.555016 0.618754 -3.683098 -26.582243 11.113750 0.498150 -52.816246 -21.578901 -7.191459 49.838886 0.000023 2.688626 -0.484563 8.899760 5.262491 
4.364613 42.133705 -19.978788 7.900391 -5.458984 38.299850 22.099609 2.734375 -1.005394 -21.181641 -2.109375 -1.308594 -11.923828 -5.849610 -16.269533 8.779296 7.197266 -17.226563 0.693359 2.900391 0.136719 -75.302734 -23.183596 61.666077 -66.142578 -2.724609 -23.495630 4.335938 11.250000 0.341797 -4.228516 -0.966797 -0.087726 72.763672 10.195312 11.455077 68.925781 3.603516 -60.625614 -20.917971 5.927735 -2.128906 -20.916166 26.138767 13.877177 70.012939 0.745179 -3.712347 -23.639515 13.335525 0.577048 -53.210251 -21.082687 -6.864099 51.419121 -0.185503 2.675724 -0.089448 11.044415 5.096579 
4.950087 41.470806 -20.290731 5.087891 -3.691406 36.034531 21.054686 2.343750 -1.503906 -22.939453 -3.330078 -1.367187 -7.138672 -4.423828 -14.649188 11.250000 6.669922 -15.155116 1.220703 2.548828 0.106988 -72.939453 -19.394531 62.470699 -65.156250 -2.705078 -22.685085 3.251953 11.962891 0.226635 -4.931641 -0.449219 -0.048828 73.281250 8.466797 19.111328 63.291019 3.779296 -63.428383 -21.562500 4.619141 -1.835938 -12.966813 26.711506 12.209249 68.959068 0.764969 -3.651586 -18.143557 14.119836 -0.287294 -51.935459 -21.050627 -6.168088 53.361595 -0.029149 2.827071 -0.220811 13.038108 5.335544 
5.731074 40.862331 -20.449963 1.054688 -1.054684 34.443264 19.638672 1.279297 -2.216570 -24.873045 -4.912109 -1.612164 -2.001953 -3.339844 -12.813068 15.488280 6.318359 -12.841797 1.748047 2.373047 0.097252 -70.273438 -15.292970 63.769527 -63.203129 -2.597656 -22.109375 1.767578 12.500000 -0.027182 -6.513672 0.097656 -0.185563 73.994141 7.314454 29.981716 55.615234 3.750000 -65.654930 -22.597656 3.945313 -1.718750 -2.656513 25.187525 9.433106 64.780373 0.155840 -3.472229 -16.138077 11.956795 -1.370589 -49.009720 -21.267454 -5.488044 55.602036 -0.683598 3.125154 -1.113728 14.927282 5.281382 
